<svg xmlns="http://www.w3.org/2000/svg" xmlns:xlink="http://www.w3.org/1999/xlink" viewBox="0 0 103 32" fill="#fff" fill-rule="evenodd" stroke="#000" stroke-linecap="round" stroke-linejoin="round"><use xlink:href="#A" x=".5" y=".5"/><symbol id="A" overflow="visible"><g stroke="none" fill-rule="nonzero"><path d="M0 10.247L5.916.001l5.916 10.246-5.918 10.262z" fill="#59666c"/><path d="M23.67 10.247L17.75 0H5.92l5.916 10.246z" fill="#bcae79"/><path d="M29.58 20.513L23.663 30.76l-5.916-10.246 5.918-10.262z" fill="#59666c"/><path d="M5.9 20.513l5.92 10.245h11.83l-5.916-10.246z" fill="#bcae79"/><path d="M36.248 19.845h1.44v-4.003h4.214v4.003h1.426v-8.917h-1.426v3.686h-4.214v-3.686h-1.44zm9.772 0h1.44v-8.917h-1.44zm10.063-2.695c0-.925-.542-1.8-1.704-2.034v-.027c.912-.317 1.52-1.123 1.52-2.034 0-1.374-1.004-2.166-2.946-2.166l-2.8.04v8.917l2.43.04c2.735 0 3.5-1.572 3.5-2.735zm-1.7-3.87c0 .898-.7 1.44-2.034 1.44-.304 0-.528 0-.766-.013v-2.642l1.123-.026c1.268 0 1.677.515 1.677 1.242zm.172 3.897c0 .898-.62 1.532-1.93 1.532-.462 0-.82-.027-1.043-.066v-2.84c.198-.013.66-.013.806-.013 1.255 0 2.166.37 2.166 1.387zm5.085-5.047h3.263v-1.202H58.2v8.917h4.703v-1.23H59.65V15.84h3.104v-1.176H59.65zm11.605 7.715l-2.35-3.105-.753-.95c1.453-.158 2.523-1.07 2.523-2.497 0-1.77-1.268-2.418-3.118-2.418l-2.4.053v8.917h1.44v-3.857h.066l2.774 3.857zm-2.087-6.394c0 .885-.7 1.48-1.863 1.48a7.9 7.9 0 0 1-.7-.026v-2.827l.753-.026c1.202 0 1.8.423 1.8 1.4z" fill="#59666c"/><path d="M80.25 19.845v-8.917h-1.4v2.652l.093 4.24-1.083-2.022-2.946-4.86h-1.9v8.917h1.4v-3l-.08-3.95 1 1.876 3.05 5.073zm9.522 0l-3.236-8.917h-1.6l-3.197 8.917h1.453l.687-1.968h3.606l.687 1.968zm-2.668-3.118H84.25l1.004-2.76c.172-.476.317-.964.4-1.414h.026a9.6 9.6 0 0 0 .396 1.374zm2.363-4.584h2.444v7.702h1.44v-7.702h2.457v-1.215h-6.34zm9.27-.013H102v-1.202h-4.703v8.917H102v-1.23h-3.263V15.84h3.104v-1.176h-3.104z" fill="#bcae79"/></g></symbol></svg>