<svg xmlns="http://www.w3.org/2000/svg" xmlns:xlink="http://www.w3.org/1999/xlink" viewBox="0 0 107 25" fill="#fff" fill-rule="evenodd" stroke="#000" stroke-linecap="round" stroke-linejoin="round"><use xlink:href="#A" x=".5" y=".5"/><symbol id="A" overflow="visible"><g stroke="none" fill-rule="nonzero"><path d="M93.312 6.344a6.33 6.33 0 1 1 12.688 0 6.33 6.33 0 1 1-12.688 0z" fill="#dd4814"/><path d="M95.342 5.497c-.468 0-.847.378-.847.847s.379.847.847.847.847-.379.847-.847-.378-.847-.847-.847zm6.047 3.849c-.297.171-.461.504-.416.844s.289.619.62.708.682-.031.891-.302.233-.642.062-.939c-.234-.405-.752-.544-1.157-.31zm-4.208-3.002a2.47 2.47 0 0 1 1.052-2.024l-.619-1.036c-.741.495-1.292 1.252-1.521 2.139a1.19 1.19 0 0 1 .438.923c0 .372-.171.704-.438.924.229.887.78 1.644 1.521 2.139l.619-1.037a2.47 2.47 0 0 1-1.052-2.024zm2.474-2.474c1.281 0 2.35.978 2.464 2.255l1.207-.018c-.059-.933-.467-1.77-1.092-2.386-.322.122-.694.103-1.016-.082s-.524-.499-.579-.84a3.7 3.7 0 0 0-.983-.134c-.586 0-1.139.138-1.631.381l.589 1.055c.317-.147.67-.23 1.042-.23zm0 4.948a2.46 2.46 0 0 1-1.042-.23l-.588 1.055c.507.251 1.065.382 1.63.381a3.68 3.68 0 0 0 .983-.134c.056-.353.269-.662.578-.84s.683-.209 1.017-.082a3.66 3.66 0 0 0 1.092-2.386l-1.207-.018c-.111 1.264-1.171 2.253-2.464 2.253zm1.733-5.477c.405.234.923.095 1.157-.31.112-.194.143-.426.085-.643s-.2-.402-.394-.514c-.405-.234-.923-.095-1.157.31s-.095.922.31 1.156z"/><path d="M12.688 22.989l-2.553.514c-1.057.181-2.281.272-3.67.272-1.208 0-2.225-.176-3.051-.528s-1.491-.851-1.994-1.495S.553 20.346.332 19.47 0 17.623 0 16.555V7.734h2.809v8.217c0 1.914.302 3.283.906 4.108s1.621 1.239 3.051 1.239l.936-.031.906-.076.77-.09c.231-.03.397-.065.498-.106V7.734h2.81v15.255zm6.857-14.56c.342-.221.861-.453 1.556-.695s1.495-.364 2.402-.364c1.128 0 2.13.201 3.006.604a6.24 6.24 0 0 1 2.22 1.692c.604.725 1.062 1.591 1.374 2.598s.468 2.114.468 3.323c0 1.269-.186 2.412-.559 3.429s-.9 1.879-1.586 2.584a7 7 0 0 1-2.477 1.631c-.967.383-2.054.574-3.261.574-1.309 0-2.467-.09-3.474-.272l-2.477-.544V.484l2.809-.483v8.428zm0 12.567c.282.081.68.156 1.193.226s1.153.106 1.918.106c1.51 0 2.719-.499 3.625-1.495s1.359-2.411 1.359-4.245c0-.805-.081-1.56-.242-2.265s-.423-1.314-.784-1.828a3.79 3.79 0 0 0-1.405-1.208c-.574-.292-1.264-.438-2.069-.438a5.57 5.57 0 0 0-2.114.393c-.644.261-1.138.536-1.482.816v9.939zm26.704 1.994l-2.553.514c-1.057.181-2.281.272-3.67.272-1.208 0-2.225-.176-3.051-.528s-1.491-.851-1.994-1.495-.866-1.405-1.087-2.281-.332-1.847-.332-2.915v-8.82h2.809v8.216c0 1.914.302 3.283.906 4.108s1.621 1.239 3.051 1.239l.936-.031.906-.076.77-.09c.231-.03.398-.065.498-.106V7.734h2.809v15.255zm4.048-14.802l2.568-.514c1.068-.181 2.296-.272 3.685-.272 1.249 0 2.286.176 3.112.529s1.484.846 1.979 1.48.841 1.395 1.042 2.281.3 1.863.3 2.93v8.821h-2.809v-8.217c0-.966-.066-1.792-.196-2.477s-.347-1.239-.65-1.661-.705-.73-1.208-.921-1.128-.287-1.873-.287l-.938.03-.921.076-.785.106-.498.09v13.261h-2.807V8.188zm19.182-.453h5.951v2.356h-5.951v7.25c0 .784.06 1.435.181 1.948s.302.917.544 1.208a1.96 1.96 0 0 0 .906.619c.364.121.784.181 1.269.181.866 0 1.551-.096 2.054-.287l1.027-.408.604 2.296c-.282.141-.781.323-1.495.544s-1.525.332-2.432.332c-1.067 0-1.948-.136-2.643-.408s-1.254-.68-1.677-1.223-.72-1.213-.891-2.009-.257-1.716-.257-2.764V3.354l2.81-.483v4.864zm21.236 15.255l-2.553.514c-1.057.181-2.282.272-3.67.272-1.208 0-2.225-.176-3.051-.528s-1.491-.851-1.994-1.495-.866-1.405-1.088-2.281-.332-1.848-.332-2.915V7.735h2.81v8.216c0 1.914.302 3.283.906 4.108s1.621 1.239 3.051 1.239l.936-.031.906-.076.77-.09c.231-.03.397-.065.498-.106V7.734h2.81v15.255z" fill="#dd4814"/></g></symbol></svg>