<svg xmlns="http://www.w3.org/2000/svg" xmlns:xlink="http://www.w3.org/1999/xlink" viewBox="0 0 143 42" fill="#fff" fill-rule="evenodd" stroke="#000" stroke-linecap="round" stroke-linejoin="round"><use xlink:href="#A" x=".5" y=".5"/><symbol id="A" overflow="visible"><g stroke="none" fill-rule="nonzero"><path d="M130.304 14.194c-.345 0-.68.07-.977.24l-9.39 5.423a1.98 1.98 0 0 0-.977 1.715V32.4a1.98 1.98 0 0 0 .977 1.715l2.453 1.413c1.192.588 1.63.578 2.174.578 1.764 0 2.77-1.07 2.77-2.93V22.492c0-.15-.13-.26-.28-.26h-1.176c-.15 0-.28.11-.28.26V33.18c0 .825-.86 1.654-2.253.957l-2.55-1.495c-.1-.05-.16-.14-.16-.24V21.574c0-.103.07-.207.16-.26l9.372-5.404a.28.28 0 0 1 .28 0l9.372 5.404c.09.053.16.153.16.26v10.827c0 .103-.052.21-.14.26l-9.39 5.404a.29.29 0 0 1-.279 0l-2.413-1.436a.25.25 0 0 0-.24 0c-.666.377-.79.42-1.416.638-.154.053-.388.137.08.4l3.15 1.857a1.94 1.94 0 0 0 .977.259c.348 0 .677-.083.977-.26l9.39-5.404c.608-.354.977-1.012.977-1.715V21.577a1.98 1.98 0 0 0-.977-1.715l-9.39-5.423c-.294-.168-.632-.24-.977-.24zm2.512 7.737c-2.674 0-4.267 1.138-4.267 3.03 0 2.05 1.58 2.617 4.148 2.87 3.07.3 3.3.752 3.3 1.356 0 1.048-.836 1.495-2.81 1.495-2.482 0-3.028-.62-3.2-1.857-.022-.132-.124-.24-.26-.24h-1.22c-.153.003-.276.126-.28.28 0 1.58.86 3.45 4.965 3.45 2.972 0 4.686-1.164 4.686-3.2 0-2.023-1.385-2.57-4.267-2.95-2.9-.388-3.2-.574-3.2-1.256 0-.563.236-1.316 2.393-1.316 1.927 0 2.64.416 2.93 1.715.025.122.133.222.26.222h1.22c.075 0 .147-.046.2-.1s.087-.122.08-.2c-.188-2.238-1.68-3.3-4.686-3.3z" fill="#83cd29"/><path d="M75.092 0a.61.61 0 0 0-.3.08.61.61 0 0 0-.3.52v15.254c0 .15-.07.284-.2.36s-.29.075-.42 0l-2.492-1.436c-.37-.214-.826-.214-1.196 0l-9.95 5.742c-.372.214-.6.627-.6 1.057V33.06c-.001.428.228.823.598 1.037l9.95 5.743a1.19 1.19 0 0 0 1.196 0l9.95-5.743c.37-.213.6-.61.598-1.037V4.427c0-.436-.238-.844-.618-1.057L75.386.07c-.093-.052-.196-.06-.3-.06zM11.086 14.337c-.2.008-.368.04-.538.14l-9.95 5.742A1.19 1.19 0 0 0 0 21.255l.02 15.414a.59.59 0 0 0 .299.518.58.58 0 0 0 .598 0l5.902-3.4c.374-.222.618-.61.618-1.036v-7.198a1.19 1.19 0 0 1 .599-1.036l2.512-1.455a1.18 1.18 0 0 1 .598-.16 1.2 1.2 0 0 1 .598.16l2.51 1.455a1.19 1.19 0 0 1 .598 1.036v7.198c0 .428.25.818.618 1.036l5.902 3.4a.58.58 0 0 0 .598 0 .6.6 0 0 0 .299-.518l.02-15.413a1.19 1.19 0 0 0-.598-1.037l-9.95-5.742c-.168-.1-.347-.132-.538-.14h-.12zm89.408.14a1.19 1.19 0 0 0-.598.16l-9.95 5.743a1.2 1.2 0 0 0-.6 1.036V32.9a1.2 1.2 0 0 0 .618 1.036l9.87 5.626c.364.208.81.224 1.176.02l5.982-3.33c.2-.105.318-.302.32-.518a.59.59 0 0 0-.299-.518l-10-5.743c-.187-.107-.32-.323-.32-.538v-3.59c0-.214.133-.41.32-.518l3.1-1.795a.6.6 0 0 1 .599 0l3.112 1.795a.6.6 0 0 1 .3.518v2.83c-.001.214.114.412.3.518a.6.6 0 0 0 .6 0l5.962-3.47a1.2 1.2 0 0 0 .599-1.036v-2.77a1.2 1.2 0 0 0-.598-1.037l-9.9-5.743c-.182-.105-.388-.16-.598-.16zm-29.75 8.574c.056 0 .11.013.16.04l3.4 1.974a.31.31 0 0 1 .16.259v3.948a.31.31 0 0 1-.16.26l-3.4 1.974c-.093.053-.206.053-.3 0l-3.4-1.974c-.093-.053-.16-.152-.16-.26v-3.95a.31.31 0 0 1 .16-.259l3.4-1.974c.047-.027.088-.04.14-.04z" fill="#404137"/><path d="M40.975 14.416c-.2 0-.417.055-.6.16l-9.95 5.723c-.372.214-.598.628-.598 1.057V32.84a1.19 1.19 0 0 0 .598 1.036l9.95 5.743a1.19 1.19 0 0 0 1.196 0l9.95-5.743c.37-.213.6-.61.598-1.037V21.355c0-.43-.226-.842-.6-1.057l-9.95-5.723a1.2 1.2 0 0 0-.6-.16zm59.5 10.25c-.04 0-.084 0-.12.02L98.44 25.8c-.073.04-.118.116-.12.2v2.193c0 .083.048.158.12.2l1.914 1.097c.067.042.152.042.22 0l1.914-1.097c.07-.04.12-.117.12-.2V26c0-.083-.048-.158-.12-.2l-1.914-1.117c-.035-.02-.06-.02-.1-.02z" fill="#83cd29"/></g></symbol></svg>